<svg xmlns="http://www.w3.org/2000/svg" viewBox="0 0 125.36 138.34"><defs><style>.cls-1,.cls-2{fill:#0080ff;}.cls-1{stroke:#fff;stroke-miterlimit:10;stroke-width:1.2px;}.cls-3{fill:#fff;}</style></defs><g id="Camada_4" data-name="Camada 4"><rect class="cls-1" x="589.97" y="250.09" width="79.28" height="119.53" rx="10" transform="matrix(1, -0.04, 0.04, 1, -598.65, -217.86)"/><path class="cls-2" d="M676.43,377.92a12.47,12.47,0,0,1-2.72-.31L616,364.23a12,12,0,0,1-9-14.4l22.46-97a12,12,0,0,1,14.4-9l57.75,13.38a12,12,0,0,1,9,14.4l-22.46,96.95A11.94,11.94,0,0,1,676.43,377.92Z" transform="translate(-587.53 -241.58)"/><path class="cls-3" d="M641.12,245.58a9.83,9.83,0,0,1,2.27.26l57.75,13.38a10,10,0,0,1,7.48,12l-22.46,97a10,10,0,0,1-9.73,7.75,10.4,10.4,0,0,1-2.27-.26l-57.75-13.38a10,10,0,0,1-7.48-12l22.46-97a10,10,0,0,1,9.73-7.74m0-4h0a13.94,13.94,0,0,0-13.64,10.84l-22.46,97a14,14,0,0,0,10.48,16.8l57.75,13.38a14.14,14.14,0,0,0,3.17.36,13.94,13.94,0,0,0,13.63-10.84l22.46-97A14,14,0,0,0,702,255.32l-57.75-13.38a14.05,14.05,0,0,0-3.16-.36Z" transform="translate(-587.53 -241.58)"/></g></svg>