<svg xmlns="http://www.w3.org/2000/svg" xmlns:xlink="http://www.w3.org/1999/xlink" viewBox="0 0 70.8 136.24"><defs><style>.cls-1{fill:none;}.cls-2{fill:#e62a68;}.cls-3{fill:#e5daa7;}.cls-4{clip-path:url(#clip-path);}.cls-5{fill:#352a1d;}.cls-6{clip-path:url(#clip-path-2);}.cls-7{opacity:0.15;}.cls-8{clip-path:url(#clip-path-3);}.cls-9{fill:#fff;}</style><clipPath id="clip-path" transform="translate(-605.36 -652.09)"><circle class="cls-1" cx="639.89" cy="705.26" r="70"/></clipPath><clipPath id="clip-path-2" transform="translate(-605.36 -652.09)"><path class="cls-2" d="M647.07,699s-1.76,9.33,14.33,23.88c20.45,18.5,13.69,65.43,13.69,65.43H611.17s-11.66-45.62,11.16-66.7C635.52,709.44,633,699,633,699Z"/></clipPath><clipPath id="clip-path-3" transform="translate(-605.36 -652.09)"><circle class="cls-3" cx="639.82" cy="684.37" r="20.12"/></clipPath></defs><g id="Camada_2" data-name="Camada 2"><g class="cls-4"><path class="cls-5" d="M623.57,657.25s20.59-14.59,40,5.28c18.22,18.69,4.54,51.63-16.9,56.91-10.19,2.51-22.72,7.92-27.62,17s-11.24-19.12-12.4-27.15C604.67,695.73,606.21,667.54,623.57,657.25Z" transform="translate(-605.36 -652.09)"/><path class="cls-2" d="M647.07,699s-1.76,9.33,14.33,23.88c20.45,18.5,13.69,65.43,13.69,65.43H611.17s-11.66-45.62,11.16-66.7C635.52,709.44,633,699,633,699Z" transform="translate(-605.36 -652.09)"/><g class="cls-6"><path class="cls-7" d="M645.29,695.13s-3.43,15-22.86,33.47-17,27.35-17,27.35l6.27-41.24Z" transform="translate(-605.36 -652.09)"/></g><circle class="cls-3" cx="34.47" cy="32.28" r="20.12"/><g class="cls-8"><path class="cls-9" d="M660.05,681l-.58-1-5.94,3.47a5.88,5.88,0,0,0-11.67.36h-4.71a5.88,5.88,0,0,0-11.66-.41l-5.27-3.4-.62,1,5.83,3.76a5.88,5.88,0,0,0,11.72.24h4.71a5.88,5.88,0,0,0,11.73-.23Zm-28.75,8.18a4.77,4.77,0,1,1,4.77-4.76A4.77,4.77,0,0,1,631.3,689.13Zm16.41,0a4.77,4.77,0,1,1,4.77-4.76A4.77,4.77,0,0,1,647.71,689.13Z" transform="translate(-605.36 -652.09)"/></g></g></g></svg>